<svg width="443" height="126" viewBox="0 0 443 126" fill="none" xmlns="http://www.w3.org/2000/svg">
<path d="M141.929 14.6546C142.129 19.2719 115.831 40.1499 108.203 49.5851C99.3696 60.2249 89.9343 70.2623 83.7111 80.7013C77.6886 90.7388 74.0751 102.985 73.8743 107.2C73.6736 111.416 79.0938 115.23 81.3021 115.23C91.5403 115.23 104.589 104.992 118.24 96.3598C124.463 92.3448 131.69 85.7201 134.099 85.3186C136.107 85.3186 136.508 86.3223 136.508 88.3298C136.308 89.9358 126.069 99.5718 118.24 105.193C104.79 114.829 91.7411 122.658 79.8968 122.056C72.8706 121.654 65.0413 115.833 65.6436 107.2C66.0451 101.981 70.6623 88.1291 73.2721 80.7013C67.2496 86.5231 60.8256 92.1441 47.7769 102.985C36.5349 111.818 22.2816 122.457 13.8501 122.056C6.02091 121.654 0.60066 117.037 0.39991 109.208C-0.00158903 98.1666 13.4486 85.5193 24.0884 71.2661C33.7244 58.2174 47.3754 45.1686 51.1896 39.7484C52.5949 33.9266 52.7956 34.1274 54.4016 30.9154C59.6211 20.6771 75.2796 12.6471 77.6886 12.8479C79.0938 13.0487 81.3021 14.4539 81.3021 16.8629C81.3021 20.4764 72.8706 28.1049 65.2421 35.9341C57.6136 43.7634 42.5574 58.8196 30.3116 75.2811C21.0771 87.7276 7.82765 101.78 8.8314 108.405C9.03215 111.015 10.8389 113.424 13.4486 113.825C21.2779 115.431 31.5161 107.2 41.9551 98.9696C52.7956 90.5381 86.9231 59.6226 101.979 42.5589C116.835 25.8966 131.69 7.62841 135.906 7.42766C139.52 7.42766 141.527 11.2419 141.929 14.6546ZM326.306 4.01491C327.109 7.2269 311.852 19.0711 294.186 38.5439C286.959 46.5739 280.736 55.6076 272.505 66.6488C260.26 83.1103 241.991 103.587 241.59 109.81C241.389 113.825 243.597 116.836 247.211 117.238C252.832 117.84 265.881 113.022 276.922 108.405C290.573 102.583 306.432 88.7313 309.443 88.7313C311.049 88.7313 312.856 89.7351 313.057 91.1403C313.86 96.1591 294.186 108.405 279.732 115.23C267.687 120.851 256.646 124.465 246.809 124.866C238.98 125.268 231.753 117.439 232.355 110.412C233.158 100.375 247.612 84.5156 259.657 69.4593C269.093 57.6151 277.926 46.1724 280.937 39.3469C270.498 45.9716 242.995 65.4444 230.749 74.2773C222.92 79.6976 192.005 99.3711 172.13 108.405C158.279 114.628 143.423 120.851 134.791 120.851C128.768 120.851 120.939 117.639 121.14 111.617C121.341 105.394 125.356 97.1628 130.374 89.5343C134.59 83.1103 140.613 74.8796 144.427 74.6788C147.84 74.4781 150.449 75.2811 150.449 78.6938C150.449 83.5118 143.222 87.1253 139.609 93.1478C135.795 99.3711 130.977 106.197 131.579 110.011C131.98 112.219 134.992 113.624 137.401 113.624C144.226 113.624 156.07 108.204 166.911 103.185C187.588 93.5493 203.849 82.5081 226.333 67.8533C245.806 55.2061 256.245 46.7746 275.316 33.3244C293.383 20.4764 316.269 1.40516 321.488 0.40141C323.696 -8.41607e-05 325.704 1.60591 326.306 4.01491ZM442.073 14.6546C442.274 19.2719 415.976 40.1499 408.347 49.5851C399.514 60.2249 390.079 70.2623 383.856 80.7013C377.833 90.7388 374.22 102.985 374.019 107.2C373.818 111.416 379.238 115.23 381.447 115.23C391.685 115.23 404.734 104.992 418.385 96.3598C424.608 92.3448 431.835 85.7201 434.244 85.3186C436.251 85.3186 436.653 86.3223 436.653 88.3298C436.452 89.9358 426.214 99.5718 418.385 105.193C404.934 114.829 391.886 122.658 380.041 122.056C373.015 121.654 365.186 115.833 365.788 107.2C366.19 101.981 370.807 88.1291 373.417 80.7013C367.394 86.5231 360.97 92.1441 347.921 102.985C336.679 111.818 322.426 122.457 313.995 122.056C306.165 121.654 300.745 117.037 300.544 109.208C300.143 98.1666 313.593 85.5193 324.233 71.2661C333.869 58.2174 347.52 45.1686 351.334 39.7484C352.739 33.9266 352.94 34.1274 354.546 30.9154C359.766 20.6771 375.424 12.6471 377.833 12.8479C379.238 13.0487 381.447 14.4539 381.447 16.8629C381.447 20.4764 373.015 28.1049 365.387 35.9341C357.758 43.7634 342.702 58.8196 330.456 75.2811C321.222 87.7276 307.972 101.78 308.976 108.405C309.177 111.015 310.983 113.424 313.593 113.825C321.422 115.431 331.661 107.2 342.1 98.9696C352.94 90.5381 387.068 59.6226 402.124 42.5589C416.979 25.8966 431.835 7.62841 436.051 7.42766C439.664 7.42766 441.672 11.2419 442.073 14.6546Z" fill="white"/>
</svg>
